<?xml version="1.0" encoding="UTF-8"?> <svg xmlns="http://www.w3.org/2000/svg" id="f3b8d106-f694-41e2-a36b-214ecaee9bed" data-name="b7582a6c-37f4-4a95-b1d6-21d638ca7b6f" viewBox="0 0 211 65"><defs></defs><defs><style>.bcc79f96-e244-4ebc-8502-51054327a857,.f5b9c894-ea65-4ce9-816a-846a79fd2cff{fill:#fff}.bcc79f96-e244-4ebc-8502-51054327a857{fill-rule:evenodd}.ef27c924-3670-4266-b4ea-3d6b5cdbea89{fill:none}</style></defs><path d="M79.05 14.21h32.28a4.81 4.81 0 001 .07c.14 0 .28.07.42.07a.83.83 0 01.41.07c.14 0 .21.07.34.07a.89.89 0 01.35.13 3.45 3.45 0 01.34.14c.13.07.14.14.21.14a.94.94 0 00.28.21l.2.2c.07.06.07.14.14.21s.14.14.14.21a.5.5 0 00.14.27.42.42 0 01.07.28.57.57 0 00.07.34v7h-27v4.07h27v8.11h-27v4.06h27v8.07H79.05a4.81 4.81 0 00-1-.07c-.14 0-.28-.07-.42-.07a1 1 0 01-.41-.06c-.14 0-.21-.07-.34-.07a.78.78 0 01-.35-.14c-.14-.07-.21-.07-.28-.14s-.2-.07-.27-.14a1.1 1.1 0 00-.28-.2c0-.07-.13-.14-.13-.21l-.21-.21c-.07-.07-.07-.14-.14-.2s-.07-.21-.14-.28a.42.42 0 01-.07-.28.66.66 0 00-.06-.34v-28.9a.66.66 0 00.06-.34c0-.07.07-.21.07-.28s.07-.13.14-.27a.54.54 0 01.14-.21c.07-.07.07-.14.14-.21l.2-.2c.07-.07.21-.14.28-.21s.14-.07.27-.14.21-.07.28-.14.21-.06.35-.13a.6.6 0 01.34-.07.83.83 0 01.41-.07c.14 0 .28-.07.42-.07a4.81 4.81 0 001-.07M137.26 39.86h-5.73v8.07h-13.44V16.62a.66.66 0 01.06-.34.4.4 0 01.07-.28c0-.07.07-.13.07-.27s.14-.14.14-.21l.21-.21.2-.2a.94.94 0 01.28-.21c.07 0 .14-.07.21-.14s.2-.07.34-.14.21-.06.35-.13l.34-.07a.83.83 0 01.41-.07c.14 0 .28-.07.42-.07a4.81 4.81 0 001-.07h32.28a4.81 4.81 0 001 .07c.14 0 .28.07.42.07a.83.83 0 01.41.07c.14 0 .21.07.34.07a.89.89 0 01.35.13.8.8 0 01.28.14.47.47 0 00.27.14l.21.21.2.2.21.21c.07.07.07.14.14.21s.07.2.14.27a.4.4 0 00.07.28v.34c0 .07.07.21.07.28 0 6.76-.07 13.52-.07 20.21v.69c-.07.06-.07.13-.14.27s-.07.14-.07.21-.14.2-.14.27l-.21.21-.2.21-.21.2a.47.47 0 00-.27.14c-.07.07-.21.07-.35.14s-.21.07-.28.14l-.34.07a.83.83 0 01-.41.07c-.14 0-.28.07-.42.07a5.6 5.6 0 00-1 .06h-2.35l8.51 8.07h-14.86l-8.51-8.07m-5.73-9.44H145v-6.76h-13.47zM201.53 38.48v9.45h-36.35a3.78 3.78 0 00-.89-.07c-.14 0-.28-.07-.42-.07a1 1 0 01-.41-.06l-.34-.07c-.14-.07-.28-.07-.35-.14s-.21-.07-.34-.14a.63.63 0 01-.21-.14 1.1 1.1 0 01-.28-.2l-.2-.21-.21-.21c0-.07-.07-.14-.07-.2s-.14-.21-.14-.28a.55.55 0 01-.07-.28.66.66 0 01-.06-.34V16.28c.06-.07.06-.21.13-.28s.07-.13.07-.27.14-.14.14-.21l.21-.21.2-.2.21-.21a.57.57 0 00.28-.14c.13-.07.2-.07.27-.14s.28-.06.35-.13.27-.07.41-.07a.61.61 0 01.35-.07c.2 0 .34-.07.48-.07a3.78 3.78 0 00.89-.07h32.35a4.21 4.21 0 001 .07c.14 0 .28.07.42.07a.83.83 0 01.41.07l.34.07c.07.07.21.07.28.13a2.78 2.78 0 00.35.14.47.47 0 00.27.14l.21.21.21.2.2.21c0 .07.07.14.14.21a.39.39 0 01.07.27.53.53 0 00.14.28v7.38h-26.9v14.82zM32.57 20.69a6.73 6.73 0 11.07 0h-.07" class="bcc79f96-e244-4ebc-8502-51054327a857"></path><path d="M32.31 23.37A36.4 36.4 0 0029.59 48h2.14a35.32 35.32 0 01-.47-5.72 34.82 34.82 0 016.67-20.55 9.42 9.42 0 01-5.36 1.65h-.26M65 3a36.27 36.27 0 00-23.32 8.43A9.68 9.68 0 0142 14a9.29 9.29 0 01-.85 3.88 35 35 0 0144.12-5h4.49A36.2 36.2 0 0065 3" class="f5b9c894-ea65-4ce9-816a-846a79fd2cff"></path><path d="M14.37 30.42a4.9 4.9 0 114.9-4.9 4.9 4.9 0 01-4.9 4.9M30.1 58.76v-5.57c0-.16.08-.32.08-.47a1.71 1.71 0 011.88-1.65h4.09v2h-3.54a.22.22 0 01-.15.08c-.24.08-.32.23-.32.55v1.1h4V57h-4v1.1c0 .39.16.63.47.63h3.54v2.12H32.3c-1.49-.04-2.2-.75-2.2-2.09zM37.25 58.37v-7.3h2v7.22c0 .32.24.4.63.4h1.41c.4 0 .55-.08.63-.32v-7.3h2v7.3a2.67 2.67 0 01-.24 1.34 1.91 1.91 0 01-1.89 1.1h-2.5a2 2 0 01-2-1.18 5.19 5.19 0 01-.04-1.26zM45.1 51.07h4.64c1.25 0 1.88.63 1.88 2v2a2.3 2.3 0 01-.55 1.49 1.66 1.66 0 01-.94.39.83.83 0 01-.39.08.6.6 0 01-.32-.08c.79 1.34 1.5 2.67 2.28 3.93h-2.28c-.78-1.26-1.41-2.44-2.12-3.62a1.32 1.32 0 01-.15-.78c.07-.87.47-1.26 1.17-1.26h.79c.39 0 .55-.15.55-.55v-.86c0-.32-.16-.55-.47-.55-.08-.08-.08-.08-.16-.08h-2v7.7h-2zM54.69 53.82V58c0 .47.23.71.62.71h1.26a.55.55 0 00.63-.63v-4.26c0-.47-.24-.71-.63-.71h-1.26c-.39 0-.62.24-.62.71zm-2-.71v-.47a1.91 1.91 0 012-1.57h2.36a1.82 1.82 0 012 2v5.58a1.85 1.85 0 01-2 2.12h-2.29a1.88 1.88 0 01-1.41-.4 1.71 1.71 0 01-.55-1.25.87.87 0 01-.08-.4zM62.31 55.07h2c.47 0 .71-.07.71-.47v-.94a.68.68 0 00-.55-.55h-2.16zm-2 5.74v-9.74H65a1.66 1.66 0 011.41.55 1.61 1.61 0 01.53 1.38v2.44a1.67 1.67 0 01-.55 1.41 1.8 1.8 0 01-1.26.47h-2.82v3.54zM67.88 58.76v-6a1.77 1.77 0 011.89-1.65h4.08v2h-3.53c-.08.08-.08.08-.16.08-.24.08-.31.23-.31.55v1.1h4V57h-4v1.1c0 .39.15.63.55.63h3.45v2.12h-3.77c-1.49-.04-2.2-.75-2.2-2.09zM77.62 56.72h1.57c-.31-1.1-.55-2.12-.86-3.14-.24 1.02-.47 2.04-.71 3.14zm-3.3 4.09c.87-2.83 1.73-5.74 2.59-8.57.24-.86.71-1.33 1.5-1.33A1.59 1.59 0 0180 52.24c.86 2.83 1.73 5.74 2.51 8.57h-2c-.24-.71-.39-1.42-.63-2.12H77a19.56 19.56 0 01-.63 2.12zM83 60.81V53a2.13 2.13 0 01.47-1.49 1.51 1.51 0 011.18-.63 1.83 1.83 0 01.63.16 1.76 1.76 0 011.1 1.49l1.41 5.66v-7.12h1.89v8.09a1.78 1.78 0 01-.47 1.25 1.66 1.66 0 01-1.18.55c-.87.08-1.41-.47-1.73-1.64l-1.41-5.66v7.15zM94.59 51.07h4.63c1.26 0 1.89.63 1.89 2v2a2 2 0 01-.55 1.49 1.33 1.33 0 01-.94.39.6.6 0 01-.32.08c-.16 0-.23 0-.31-.08.7 1.34 1.49 2.67 2.2 3.93h-2.28c-.71-1.26-1.42-2.44-2.12-3.62a2.25 2.25 0 01-.16-.78c.08-.87.47-1.26 1.18-1.26h.86c.32 0 .47-.15.47-.55v-.86c0-.32-.15-.55-.47-.55 0-.08-.08-.08-.16-.08h-2v7.7h-2zM104.17 53.82V58a.63.63 0 00.71.71h1.18c.47 0 .62-.16.62-.63v-4.26c0-.47-.15-.71-.62-.71h-1.18a.63.63 0 00-.71.71zm-2-.71a1 1 0 01.08-.47 1.85 1.85 0 012-1.57h2.28a1.85 1.85 0 012.12 2v5.58a1.88 1.88 0 01-2.12 2.12h-2.28a1.9 1.9 0 01-1.42-.4 1.73 1.73 0 01-.62-1.25 3.46 3.46 0 00-.08-.4zM109.12 51.07h2.12c.63 2.28 1.34 4.63 2 6.91.71-2.28 1.34-4.63 2-6.91h2c-.94 2.9-1.81 5.73-2.67 8.64-.24.86-.71 1.25-1.42 1.25s-1.1-.39-1.33-1.25c-.89-2.91-1.76-5.71-2.7-8.64zM117.76 58.76v-5.57a1 1 0 01.08-.47 1.69 1.69 0 011.81-1.65h4.16v2h-3.62a.07.07 0 01-.07.08.52.52 0 00-.4.55v1.1h4.09V57h-4.09v1.1a.57.57 0 00.55.63h3.54v2.12H120c-1.53-.04-2.24-.75-2.24-2.09zM124.83 51.07h4.63a1.72 1.72 0 012 2v2a2 2 0 01-.63 1.49 1.33 1.33 0 01-.94.39.48.48 0 01-.32.08.45.45 0 01-.31-.08c.78 1.34 1.49 2.67 2.28 3.93h-2.36c-.71-1.26-1.42-2.44-2.12-3.62a1.25 1.25 0 01-.08-.78c0-.87.39-1.26 1.18-1.26h.78a.49.49 0 00.55-.55v-.86a.53.53 0 00-.55-.55.07.07 0 00-.07-.08h-2v7.7h-2zM136.14 58.69v-5.42a2.4 2.4 0 01.47-1.73c.32-.39.86-.47 1.73-.47h3.85v2h-3.54c-.31.08-.47.24-.47.47v4.24a1.67 1.67 0 00.16.79.57.57 0 00.39.08h3.46v2.12H138a2.22 2.22 0 01-.7-.16 2.12 2.12 0 01-1.16-1.92zM143.21 60.81v-9.74h2v3.77H148v-3.77h2v9.74h-2V57h-2.83v3.85zM153.73 56.72h1.65c-.31-1.1-.62-2.12-.94-3.14-.23 1.02-.39 2.04-.71 3.14zm-3.22 4.09c.87-2.83 1.65-5.74 2.52-8.57a1.57 1.57 0 011.57-1.33c.78 0 1.26.47 1.49 1.33.94 2.83 1.73 5.74 2.59 8.57h-2a22.09 22.09 0 01-.63-2.12h-2.82c-.24.7-.4 1.41-.63 2.12zM159.23 58.45v-7.38h2v7.22c0 .24.15.4.47.4h3.53v2.12h-3.69c-.16 0-.23 0-.31-.08a1.92 1.92 0 01-1.5-.55 2.71 2.71 0 01-.5-1.73zM166.07 58.45v-7.38h2v7.22c0 .24.16.4.47.4H172v2.12h-3.7c-.15 0-.23 0-.31-.08a2.22 2.22 0 01-1.57-.55 2.73 2.73 0 01-.35-1.73zM172.82 58.76v-5.57a1 1 0 01.08-.47 1.7 1.7 0 011.81-1.65h4.16v2h-3.61a.08.08 0 01-.08.08.51.51 0 00-.39.55v1.1h4.08V57h-4.08v1.1a.56.56 0 00.54.63h3.54v2.12H175c-1.47-.04-2.18-.75-2.18-2.09zM179.89 60.81V53a2.13 2.13 0 01.47-1.49 1.51 1.51 0 011.18-.63 1.46 1.46 0 01.63.16 2 2 0 011.18 1.49c.47 1.89.86 3.77 1.33 5.66v-7.12h1.89v8.09a1.78 1.78 0 01-.47 1.25 1.64 1.64 0 01-1.1.59c-.95.08-1.5-.47-1.81-1.64-.47-1.89-.86-3.78-1.41-5.66v7.15zM187.82 58.06v-4.64a2.63 2.63 0 01.47-1.8 2.17 2.17 0 011.73-.55h3.77v2h-3.69a.53.53 0 00-.31.47v4.71a.37.37 0 00.39.4h1.57c.39 0 .63-.16.63-.4v-3.02h2v3.06a4.74 4.74 0 01-.15 1.34 1.86 1.86 0 01-1.89 1.18H190a2.51 2.51 0 01-1.8-.63 3.46 3.46 0 01-.4-.94zM195.52 58.76v-5.57c0-.16.08-.32.08-.47a1.72 1.72 0 011.89-1.65h4.08v2H198c-.07.08-.07.08-.15.08-.24.08-.32.23-.32.55v1.1h4V57h-4v1.1c0 .39.16.63.47.63h3.54v2.12h-3.85c-1.38-.04-2.17-.75-2.17-2.09z" class="bcc79f96-e244-4ebc-8502-51054327a857"></path><path d="M53.64 9.59h79.77v38.87H53.64z" class="ef27c924-3670-4266-b4ea-3d6b5cdbea89"></path></svg> 