{
    "asset" : {
        "generator" : "Khronos glTF Blender I/O v3.4.50",
        "version" : "2.0"
    },
    "scene" : 0,
    "scenes" : [
        {
            "name" : "Scene",
            "nodes" : [
                0
            ]
        }
    ],
    "nodes" : [
        {
            "mesh" : 0,
            "name" : "WHITE_SKULL.005",
            "rotation" : [
                -0.08751919865608215,
                -0.7016697525978088,
                0.08751919865608215,
                0.7016697525978088
            ],
            "scale" : [
                1.1537545919418335,
                1.1537545919418335,
                1.1537545919418335
            ]
        }
    ],
    "materials" : [
        {
            "doubleSided" : true,
            "name" : "Material.001",
            "pbrMetallicRoughness" : {
                "baseColorTexture" : {
                    "index" : 0
                },
                "metallicFactor" : 0,
                "roughnessFactor" : 0.5
            }
        }
    ],
    "meshes" : [
        {
            "name" : "WHITE_SKULL.005",
            "primitives" : [
                {
                    "attributes" : {
                        "POSITION" : 0,
                        "TEXCOORD_0" : 1,
                        "NORMAL" : 2
                    },
                    "indices" : 3,
                    "material" : 0
                }
            ]
        }
    ],
    "textures" : [
        {
            "sampler" : 0,
            "source" : 0
        }
    ],
    "images" : [
        {
            "bufferView" : 4,
            "mimeType" : "image/png",
            "name" : "BaseColor"
        }
    ],
    "accessors" : [
        {
            "bufferView" : 0,
            "componentType" : 5126,
            "count" : 6790,
            "max" : [
                14.688508033752441,
                15.544149398803711,
                16.066083908081055
            ],
            "min" : [
                -16.721481323242188,
                -16.45527458190918,
                -16.42255401611328
            ],
            "type" : "VEC3"
        },
        {
            "bufferView" : 1,
            "componentType" : 5126,
            "count" : 6790,
            "type" : "VEC2"
        },
        {
            "bufferView" : 2,
            "componentType" : 5126,
            "count" : 6790,
            "type" : "VEC3"
        },
        {
            "bufferView" : 3,
            "componentType" : 5123,
            "count" : 22356,
            "type" : "SCALAR"
        }
    ],
    "bufferViews" : [
        {
            "buffer" : 0,
            "byteLength" : 81480,
            "byteOffset" : 0,
            "target" : 34962
        },
        {
            "buffer" : 0,
            "byteLength" : 54320,
            "byteOffset" : 81480,
            "target" : 34962
        },
        {
            "buffer" : 0,
            "byteLength" : 81480,
            "byteOffset" : 135800,
            "target" : 34962
        },
        {
            "buffer" : 0,
            "byteLength" : 44712,
            "byteOffset" : 217280,
            "target" : 34963
        },
        {
            "buffer" : 0,
            "byteLength" : 113553,
            "byteOffset" : 261992
        }
    ],
    "samplers" : [
        {
            "magFilter" : 9729,
            "minFilter" : 9987
        }
    ],
    "buffers" : [
        {
            "byteLength" : 375548,
            "uri" : "data:application/octet-stream;base64,"
        }
    ]
}
