{
    "asset" : {
        "generator" : "Khronos glTF Blender I/O v3.4.50",
        "version" : "2.0"
    },
    "scene" : 0,
    "scenes" : [
        {
            "name" : "Scene",
            "nodes" : [
                0
            ]
        }
    ],
    "nodes" : [
        {
            "mesh" : 0,
            "name" : "WHITE_SKULL.005",
            "rotation" : [
                0,
                0,
                0.1237708330154419,
                0.9923108220100403
            ],
            "scale" : [
                1.1537545919418335,
                1.1537545919418335,
                1.1537545919418335
            ]
        }
    ],
    "meshes" : [
        {
            "name" : "WHITE_SKULL.005",
            "primitives" : [
                {
                    "attributes" : {
                        "POSITION" : 0,
                        "NORMAL" : 1
                    },
                    "indices" : 2
                }
            ]
        }
    ],
    "accessors" : [
        {
            "bufferView" : 0,
            "componentType" : 5126,
            "count" : 5222,
            "max" : [
                14.85112190246582,
                15.493024826049805,
                15.935786247253418
            ],
            "min" : [
                -16.99778175354004,
                -16.506399154663086,
                -16.552852630615234
            ],
            "type" : "VEC3"
        },
        {
            "bufferView" : 1,
            "componentType" : 5126,
            "count" : 5222,
            "type" : "VEC3"
        },
        {
            "bufferView" : 2,
            "componentType" : 5123,
            "count" : 21249,
            "type" : "SCALAR"
        }
    ],
    "bufferViews" : [
        {
            "buffer" : 0,
            "byteLength" : 62664,
            "byteOffset" : 0,
            "target" : 34962
        },
        {
            "buffer" : 0,
            "byteLength" : 62664,
            "byteOffset" : 62664,
            "target" : 34962
        },
        {
            "buffer" : 0,
            "byteLength" : 42498,
            "byteOffset" : 125328,
            "target" : 34963
        }
    ],
    "buffers" : [
        {
            "byteLength" : 167828,
            "uri" : "data:application/octet-stream;base64,"
        }
    ]
}
